<?xml version="1.0" standalone="no"?>
<!DOCTYPE svg PUBLIC "-//W3C//DTD SVG 20010904//EN"
 "http://www.w3.org/TR/2001/REC-SVG-20010904/DTD/svg10.dtd">
<svg version="1.0" xmlns="http://www.w3.org/2000/svg"
 width="300.000000pt" height="187.000000pt" viewBox="0 0 300.000000 187.000000"
 preserveAspectRatio="xMidYMid meet">
<metadata>
Created by potrace 1.10, written by Peter Selinger 2001-2011
</metadata>
<g transform="translate(0.000000,187.000000) scale(0.100000,-0.100000)"
fill="#000000" stroke="none">
<path d="M1402 1849 c-44 -8 -92 -37 -114 -68 -10 -14 -39 -19 -143 -28 l-130
-11 -31 33 c-36 40 -78 50 -180 42 -105 -8 -150 -34 -277 -158 -101 -99 -113
-107 -163 -117 -77 -16 -161 -60 -218 -114 l-49 -47 5 -73 c4 -57 12 -89 37
-139 31 -64 113 -169 132 -169 5 0 9 20 9 43 0 42 21 77 46 77 17 0 13 -105
-8 -175 -30 -100 -124 -339 -159 -406 -24 -44 -37 -58 -59 -62 -75 -16 -111
-100 -70 -165 28 -46 99 -76 157 -68 41 5 47 3 81 -31 20 -20 48 -60 62 -88
21 -42 34 -55 85 -80 59 -29 63 -30 215 -30 135 0 163 3 221 23 82 28 139 85
139 139 0 11 13 32 29 47 28 27 45 31 313 72 384 60 346 62 369 -11 22 -71 69
-132 117 -152 91 -38 382 -31 446 10 41 27 61 77 48 116 -8 21 -8 40 -2 57 6
14 10 63 10 109 l0 84 53 16 c77 22 145 68 163 110 44 105 -6 261 -106 334
-28 20 -36 31 -29 42 12 20 11 126 -2 174 -11 38 -50 83 -116 132 -18 13 -34
39 -44 69 -19 62 -56 88 -148 104 -52 10 -76 10 -103 1 -42 -14 -63 -53 -52
-96 6 -26 5 -28 -19 -21 -35 8 -91 -15 -113 -48 -11 -19 -15 -38 -11 -66 5
-38 2 -43 -55 -101 l-60 -60 -64 33 c-35 18 -64 35 -64 38 0 3 39 46 88 96 48
49 123 127 166 172 l80 82 -57 113 c-68 137 -115 190 -188 211 -56 17 -166 19
-237 5z m209 -20 c72 -16 131 -77 193 -201 l46 -93 -24 -6 c-13 -4 -62 -10
-108 -13 -150 -12 -156 -14 -168 -50 -16 -48 -75 -113 -115 -126 -51 -17 -112
-4 -172 37 -29 19 -53 38 -53 42 1 10 38 56 42 51 2 -3 18 -22 36 -43 18 -21
30 -44 26 -50 -3 -7 1 -4 9 6 14 17 11 22 -33 63 l-48 45 -121 -11 c-67 -7
-127 -10 -134 -7 -7 3 -35 46 -62 96 -41 77 -51 90 -68 85 -14 -4 -18 -2 -14
7 2 8 11 12 18 10 8 -2 27 -6 43 -9 41 -7 24 16 -18 23 -20 4 -42 18 -54 34
-11 16 -38 36 -59 46 l-38 19 40 9 c22 4 67 7 99 4 56 -3 62 -6 101 -49 23
-25 58 -78 79 -117 l37 -71 50 0 c45 0 50 2 59 28 18 50 38 76 72 94 70 38
186 12 241 -53 31 -36 38 -39 85 -39 76 0 76 8 4 118 -36 55 -117 112 -157
111 -12 0 -3 -7 21 -15 43 -16 117 -86 153 -147 24 -40 26 -37 -26 -52 -6 -2
-14 6 -17 18 -7 31 -72 104 -107 123 -16 8 -56 16 -89 17 -33 1 -60 5 -60 8 0
12 55 44 95 55 54 15 133 16 196 3z m-843 -73 c15 -8 37 -25 50 -39 20 -21 21
-27 11 -51 -15 -31 -8 -41 19 -27 18 9 23 6 41 -31 15 -31 18 -46 10 -62 -10
-20 -10 -20 5 -2 15 18 17 17 37 -30 l22 -49 -94 -88 c-52 -49 -85 -84 -74
-79 11 6 56 44 100 86 77 72 82 75 130 76 28 0 84 5 125 10 41 4 76 7 78 5 2
-2 -4 -14 -13 -28 -18 -27 -47 -35 -140 -38 l-60 -2 -99 -96 c-54 -53 -100
-91 -103 -85 -2 6 -10 20 -18 30 -13 18 -15 19 -65 1 -28 -10 -59 -15 -70 -12
-17 6 -18 8 -3 33 9 15 56 63 105 107 99 89 99 90 51 172 -28 49 -67 83 -94
83 -22 0 -189 -137 -189 -156 0 -3 30 22 68 56 86 79 117 96 148 81 24 -10 33
-31 15 -31 -6 0 -37 -25 -71 -56 -57 -54 -63 -57 -113 -57 -58 0 -97 -19 -97
-48 0 -12 -7 -19 -19 -19 -11 0 -26 -3 -35 -6 -34 -13 -11 83 28 115 8 7 13
18 11 24 -5 15 103 131 173 186 57 44 86 50 130 27z m705 -38 c35 -17 104
-104 92 -116 -2 -3 -24 16 -48 41 -49 50 -92 67 -170 67 -82 0 -161 -46 -187
-111 -18 -43 -45 -37 -71 14 -12 23 -31 55 -41 70 -11 16 -19 30 -17 32 2 2
33 6 69 9 36 4 97 10 135 15 93 11 191 3 238 -21z m-276 -108 c-11 -30 -27
-41 -27 -18 0 10 28 48 36 48 1 0 -3 -13 -9 -30z m-375 -94 l20 -39 -43 -43
c-43 -43 -59 -53 -59 -35 0 6 -13 30 -30 54 -16 25 -30 50 -30 55 0 6 21 27
47 47 53 41 54 41 95 -39z m-417 -29 c-30 -51 -32 -90 -7 -115 10 -10 17 -22
16 -28 -1 -5 -11 -40 -23 -79 l-20 -70 -46 -1 c-33 -1 -53 -8 -70 -24 l-25
-23 -16 38 c-26 64 -29 103 -9 125 11 12 25 18 36 15 14 -5 23 3 36 32 24 50
45 53 61 10 7 -19 21 -42 32 -52 26 -24 25 -11 -2 26 -31 41 -28 88 7 135 l28
39 -31 -29 c-18 -16 -34 -37 -37 -46 -3 -9 -16 -22 -29 -28 -21 -9 -25 -8 -30
14 -4 13 -13 24 -20 24 -14 0 -36 -49 -36 -80 0 -9 -12 -32 -26 -51 -30 -40
-28 -67 7 -144 13 -27 26 -61 30 -75 6 -24 7 -23 8 6 0 17 9 38 20 48 24 21
75 36 91 26 16 -10 6 -40 -14 -40 -32 0 -65 -24 -78 -56 l-13 -34 -40 55 c-47
64 -71 122 -80 191 l-6 49 16 -28 c9 -16 19 -26 22 -23 3 2 -5 18 -16 35 -20
28 -21 32 -7 53 33 49 131 110 216 134 81 22 84 20 55 -29z m1426 16 c-6 -10
-77 -87 -159 -171 l-149 -153 -64 -8 -64 -8 58 -2 c54 -1 74 -9 258 -107 109
-58 199 -110 199 -115 0 -10 -10 -13 -162 -34 -109 -15 -119 -15 -145 1 l-28
16 23 -20 c12 -11 22 -28 22 -38 0 -31 -44 -84 -87 -105 -49 -24 -102 -18
-143 14 l-25 20 38 -7 c72 -13 157 50 157 117 0 27 9 30 128 43 34 4 62 9 62
13 0 3 -66 41 -146 84 l-146 78 -196 -20 c-109 -11 -257 -25 -329 -32 -73 -7
-133 -16 -133 -21 0 -4 17 -6 37 -3 21 3 94 10 163 15 134 9 390 36 428 45
l22 5 0 -155 0 -155 -31 0 c-41 0 -65 15 -73 43 -3 15 -22 33 -50 47 -43 23
-47 24 -145 12 l-102 -12 -62 31 c-34 18 -85 46 -113 64 -28 18 -59 35 -70 39
-27 8 -30 63 -4 71 11 4 20 14 20 24 0 15 12 19 68 24 37 4 117 12 177 17 61
6 170 15 244 19 l134 8 129 133 c71 73 127 135 124 137 -2 3 -33 0 -68 -5 -34
-5 -65 -8 -66 -7 -2 2 -1 12 3 23 5 17 18 22 73 26 55 5 159 18 195 25 4 0 3
-7 -2 -16z m-1125 -68 l36 -54 -28 -25 c-33 -29 -47 -32 -63 -12 -10 11 -9 21
3 44 14 28 14 32 -4 55 -19 24 -20 26 -3 36 10 6 19 11 20 11 2 0 19 -25 39
-55z m1424 25 c54 -15 70 -31 89 -90 15 -47 25 -60 67 -88 71 -47 97 -97 98
-186 1 -86 -21 -130 -80 -163 -51 -29 -118 -39 -150 -23 -18 10 -24 22 -24 47
0 18 1 33 3 33 1 0 18 -4 37 -10 43 -12 102 2 130 33 12 12 16 23 10 25 -5 2
-10 11 -10 21 0 28 -28 59 -62 66 -17 4 -42 20 -56 37 -20 23 -32 29 -66 29
-103 0 -110 3 -150 47 l-39 43 41 -7 c65 -10 92 1 92 37 0 17 -5 40 -11 51
-15 28 12 50 50 42 34 -8 61 -44 86 -113 17 -46 28 -59 65 -81 55 -32 83 -80
75 -130 -4 -26 -3 -31 4 -20 32 46 -2 126 -68 160 -30 15 -43 31 -65 83 -15
36 -37 74 -50 86 -30 28 -76 36 -101 18 -18 -14 -19 -18 -7 -51 20 -54 9 -76
-38 -76 -22 0 -45 7 -54 16 -14 13 -17 14 -22 1 -3 -9 10 -35 29 -61 20 -25
41 -62 48 -83 6 -21 26 -61 44 -89 l33 -51 -61 -12 c-59 -12 -60 -12 -89 16
-32 30 -61 81 -72 126 -7 32 -8 31 36 13 35 -15 65 -56 54 -75 -4 -6 -2 -11 3
-11 6 0 11 -4 11 -9 0 -18 21 -64 26 -58 7 7 -33 126 -48 145 -7 8 -31 23 -53
32 -54 23 -68 42 -68 92 0 31 6 46 22 59 30 25 87 34 118 20 23 -10 25 -10 18
6 -15 35 -17 89 -3 100 29 24 82 25 158 3z m-1510 -15 l24 -25 -22 -44 c-25
-52 -48 -62 -96 -42 -39 16 -41 22 -26 78 10 34 28 46 91 57 3 1 16 -10 29
-24z m957 -92 c-47 -49 -96 -100 -107 -115 -12 -16 -25 -28 -29 -28 -8 0 -61
91 -61 104 0 3 11 6 25 6 40 0 103 37 128 75 22 33 35 39 106 43 21 2 11 -12
-62 -85z m-1313 11 c-3 -13 -10 -24 -14 -24 -18 0 -21 22 -9 57 11 35 12 36
20 14 5 -12 6 -34 3 -47z m992 1 c36 -25 74 -45 84 -45 12 0 30 -19 50 -56 18
-30 30 -57 27 -60 -2 -3 -65 -9 -138 -14 -162 -11 -361 -28 -410 -36 -33 -5
-37 -3 -43 22 -6 21 -3 32 10 41 10 7 55 49 100 92 79 77 84 80 140 86 53 5
84 10 106 14 4 0 37 -19 74 -44z m-776 10 c0 -14 9 -33 20 -42 24 -21 26 -33
5 -33 -8 0 -23 17 -34 38 -17 31 -20 33 -21 14 0 -13 11 -33 24 -46 l25 -22
-25 -67 c-27 -77 -44 -184 -26 -173 6 3 14 28 18 54 11 74 50 175 71 183 10 4
32 8 50 8 17 1 34 5 37 9 3 5 -18 8 -47 6 -48 -3 -49 -3 -13 5 21 4 42 14 47
22 7 12 11 12 23 -1 23 -23 -3 -76 -42 -84 -36 -8 -92 -61 -92 -88 0 -10 13
-26 29 -35 l28 -17 -25 -48 c-21 -41 -29 -48 -54 -48 -42 0 -98 29 -111 57 -8
19 -5 40 16 106 15 45 32 107 39 137 16 76 58 123 58 65z m305 -155 c8 -16 15
-46 15 -66 l0 -37 -23 21 c-13 12 -28 22 -34 22 -21 0 -23 -32 -5 -58 32 -46
32 -59 5 -86 -34 -34 -58 -33 -73 4 -26 62 11 193 62 217 34 17 36 16 53 -17z
m-214 -36 c-5 -24 -4 -49 2 -59 7 -13 1 -12 -22 6 -17 12 -31 26 -31 30 0 18
13 38 21 34 4 -3 13 4 19 16 16 29 19 21 11 -27z m98 37 c11 -7 12 -13 4 -23
-5 -7 -16 -41 -23 -75 -12 -54 -16 -61 -32 -52 -31 17 -46 112 -23 149 8 12
55 13 74 1z m1169 -66 c1 -14 12 -48 23 -76 28 -65 17 -80 -41 -54 -23 10 -43
22 -46 26 -6 10 21 66 44 92 9 10 11 17 4 17 -6 0 -23 -21 -38 -47 -15 -27
-29 -49 -30 -51 -5 -8 -44 19 -44 30 0 7 23 34 51 61 54 52 73 52 77 2z m236
10 c33 -31 33 -53 0 -65 -32 -13 -40 -8 -54 35 -19 58 7 73 54 30z m105 -11
c23 -29 27 -44 11 -44 -5 0 -10 6 -10 14 0 7 -7 19 -15 26 -13 11 -14 9 0 -16
18 -36 12 -43 -17 -18 -18 15 -20 16 -9 2 12 -16 11 -18 -3 -18 -17 0 -20 5
-30 53 -6 25 -4 27 23 27 20 0 36 -9 50 -26z m-1409 -29 c7 -9 10 -18 7 -22
-8 -7 -37 15 -37 28 0 14 16 11 30 -6z m1465 -16 c4 -6 13 -8 21 -5 7 3 16 0
20 -6 4 -7 3 -8 -4 -4 -14 8 -15 5 -6 -19 6 -13 9 -14 16 -3 7 9 8 7 5 -9 -3
-13 -1 -23 4 -23 4 0 6 -7 3 -15 -9 -22 -24 -18 -24 6 0 11 -13 34 -30 51 -16
16 -30 31 -30 34 0 8 19 4 25 -7z m0 -35 c18 -18 25 -35 23 -53 -3 -23 -8 -26
-50 -29 -59 -4 -109 17 -137 57 -19 27 -20 32 -7 37 8 3 33 3 54 1 21 -3 44
-2 52 3 24 15 37 12 65 -16z m-642 -54 c27 -14 53 -32 58 -41 7 -14 2 -18 -29
-23 -63 -12 -72 -17 -72 -39 0 -42 -68 -123 -87 -104 -2 3 -1 66 2 140 l8 136
36 -23 c20 -12 58 -33 84 -46z m-979 28 c18 -18 38 -43 45 -55 16 -32 58 -30
93 3 l27 27 88 -50 c187 -107 159 -98 279 -84 99 11 107 11 136 -7 l30 -19
-33 -6 c-19 -4 -91 -13 -160 -22 l-127 -16 -78 47 c-44 26 -81 49 -84 51 -2 2
1 13 8 24 12 18 10 19 -37 18 l-50 -2 15 -29 c11 -20 21 -28 37 -26 32 4 187
-89 187 -112 0 -17 -3 -17 -26 5 -31 29 -87 49 -119 43 -14 -3 -26 0 -29 8 -3
8 -20 14 -38 14 -20 0 -54 14 -88 35 -30 19 -58 35 -62 35 -5 0 -6 -16 -2 -35
6 -34 5 -35 -25 -35 l-31 0 0 110 c0 61 2 110 5 110 4 0 21 -15 39 -32z m-224
-38 c15 -15 28 -18 46 -14 l25 6 -30 -48 c-17 -26 -31 -54 -31 -60 0 -7 -4
-15 -10 -19 -13 -8 -38 84 -33 123 6 38 7 38 33 12z m1529 -11 c30 -25 21 -35
-19 -19 -30 12 -36 21 -23 33 10 10 16 8 42 -14z m-1379 -69 c0 -79 0 -80 -25
-80 -14 0 -47 -9 -75 -19 -27 -11 -50 -17 -50 -14 0 3 19 41 41 85 39 73 56
91 107 107 1 1 2 -35 2 -79z m1566 45 c12 -30 -6 -104 -28 -116 -28 -15 -139
-13 -150 3 -4 7 -8 29 -8 49 0 32 4 38 38 52 70 30 139 36 148 12z m346 -63
c65 -72 91 -205 52 -273 -13 -24 -38 -43 -84 -66 -101 -49 -106 -50 -119 -10
-15 44 -66 96 -118 119 -48 21 -61 36 -40 44 23 9 39 59 36 108 -4 44 -4 45
31 51 67 12 127 36 150 60 27 29 40 24 92 -33z m-1643 7 c-20 -13 -29 -11 -29
5 0 16 33 27 39 13 2 -5 -3 -13 -10 -18z m-438 -73 c0 -11 -9 -31 -21 -45 -11
-15 -26 -38 -32 -53 -10 -22 -45 -44 -54 -35 -2 1 16 52 39 114 l41 111 14
-36 c8 -21 14 -46 13 -56z m309 44 l25 -20 -32 0 c-26 0 -33 4 -33 20 0 25 8
25 40 0z m1177 2 c-9 -10 -20 -33 -23 -50 -4 -17 -10 -30 -14 -27 -13 8 -135
-16 -139 -27 -8 -25 -87 -101 -123 -119 -45 -23 -134 -25 -182 -5 -19 8 -52
30 -74 50 l-40 37 -72 -12 -72 -12 6 -36 c3 -20 6 -98 6 -173 0 -138 0 -138
23 -138 20 0 400 58 491 76 31 5 31 5 31 -37 0 -23 -4 -44 -10 -45 -11 -3
-286 -46 -445 -70 -52 -7 -110 -16 -128 -19 l-34 -6 7 55 c7 50 5 57 -19 81
-34 34 -33 48 6 78 l31 25 -11 78 c-9 69 -14 81 -41 104 -26 21 -31 32 -31 68
0 23 4 42 9 42 5 0 76 9 157 20 82 11 152 20 155 20 4 0 12 -13 19 -29 31 -76
127 -114 197 -78 38 20 91 80 99 111 5 22 14 25 92 36 48 6 92 13 97 15 6 2
19 4 29 4 18 1 18 0 3 -17z m48 -10 c-5 -24 -2 -30 20 -40 37 -17 140 -15 176
3 25 13 28 20 23 43 -6 26 -6 26 12 9 24 -23 27 -129 3 -152 -27 -28 -110 -44
-170 -33 -70 12 -94 29 -109 73 -14 42 -7 78 20 105 27 27 33 25 25 -8z
m-1235 -38 c0 -15 -32 -34 -57 -34 -42 0 -146 -29 -162 -45 -13 -12 -10 -16
15 -25 l29 -12 -25 -14 c-14 -9 -17 -13 -7 -10 9 3 25 9 35 12 12 4 11 0 -6
-15 -13 -11 -26 -36 -29 -56 -3 -22 -11 -35 -21 -35 -11 0 -13 9 -9 40 5 38 3
41 -39 70 -24 16 -44 26 -44 22 0 -5 14 -27 31 -50 17 -24 29 -45 26 -48 -3
-4 -22 -1 -41 6 -40 13 -45 32 -25 88 8 24 24 38 65 57 57 27 78 32 179 45 33
4 66 8 73 8 6 1 12 -1 12 -4z m79 0 c50 -10 20 -34 -42 -34 -49 0 -50 0 -32
20 20 22 27 23 74 14z m44 -62 c-3 -26 -11 -42 -19 -42 -20 0 -18 49 3 72 21
24 23 21 16 -30z m129 12 c20 -13 39 -31 41 -41 15 -56 17 -76 6 -89 -14 -17
-32 -19 -24 -1 4 6 1 5 -7 -4 -7 -9 -23 -21 -34 -27 -20 -11 -22 -9 -29 24 -7
41 -9 38 29 51 16 5 30 17 32 26 2 15 -2 14 -37 -4 -32 -16 -43 -17 -61 -8
l-21 11 24 18 23 18 -27 13 c-33 15 -34 23 -4 36 25 12 38 8 89 -23z m-271
-21 l2 -28 4 28 c4 24 9 28 31 25 22 -2 28 -9 30 -35 3 -29 1 -31 -39 -38 -23
-4 -44 -3 -48 2 -3 4 -22 6 -41 2 -40 -6 -26 -17 30 -21 24 -2 36 -9 38 -20 3
-16 -6 -18 -85 -18 l-88 1 28 22 c26 22 35 39 20 35 -15 -3 -43 14 -43 26 0 7
11 18 25 24 34 16 35 15 35 -7 0 -11 4 -22 9 -25 4 -3 6 5 4 18 -4 19 0 25 18
29 59 11 69 8 70 -20z m99 -8 c0 -19 -4 -35 -9 -35 -5 0 -11 16 -13 35 -3 24
0 35 9 35 8 0 13 -13 13 -35z m1071 3 l1 -33 8 30 c4 17 8 25 9 18 0 -6 12
-25 26 -42 l26 -30 -33 9 c-41 12 -78 -9 -78 -45 0 -13 -4 -27 -10 -30 -6 -4
-10 23 -10 74 l0 81 30 0 c27 0 30 -3 31 -32z m-71 -54 c0 -64 -4 -80 -24
-107 -13 -18 -27 -42 -30 -54 -5 -16 -18 -23 -49 -28 -23 -3 -54 -8 -69 -11
l-28 -6 0 71 c0 67 1 71 28 85 31 16 112 100 112 116 0 5 14 10 30 10 l30 0 0
-76z m-926 57 c3 -5 -1 -11 -9 -15 -9 -3 -15 0 -15 9 0 16 16 20 24 6z m3 -56
c23 -16 48 -85 35 -96 -12 -10 -115 -29 -142 -26 -36 4 -50 15 -50 39 0 17 5
20 30 16 20 -3 30 0 30 9 0 9 14 13 41 13 25 0 47 7 57 17 15 15 15 16 1 11
-9 -4 -38 -9 -65 -13 -27 -3 -59 -8 -71 -11 -15 -3 -23 1 -25 13 -3 14 7 20
52 29 76 16 83 16 107 -1z m479 -22 c42 -36 44 -40 44 -91 l0 -53 -30 21 -30
21 -10 -26 c-5 -14 -10 -41 -10 -60 0 -36 3 -34 -92 -51 l-38 -6 0 135 c0 152
-6 142 83 146 31 1 47 -6 83 -36z m559 7 c3 -5 13 -6 23 -3 15 6 15 5 -1 -11
-14 -14 -21 -16 -30 -7 -6 6 -22 11 -36 11 -21 0 -23 2 -11 10 19 12 47 13 55
0z m93 -6 c21 -14 21 -16 5 -32 -24 -24 -93 -44 -93 -27 0 13 50 75 60 75 3 0
16 -7 28 -16z m155 6 c7 -6 37 -23 67 -38 88 -45 120 -108 120 -238 0 -77 -21
-164 -46 -189 -24 -24 -26 -13 -8 36 12 30 17 78 18 149 1 123 -10 155 -66
185 -21 11 -39 27 -42 35 -2 8 -4 3 -5 -11 -1 -21 5 -28 27 -34 42 -10 60 -33
73 -91 14 -61 1 -186 -25 -249 -18 -43 -47 -46 -121 -11 -105 49 -214 211
-227 338 l-3 33 135 0 c74 0 125 1 112 3 -16 2 -22 8 -18 18 3 8 -1 14 -10 14
-17 0 -44 23 -44 39 0 8 16 16 43 20 4 0 13 -4 20 -9z m-1806 -6 c-13 -13 15
-45 61 -68 65 -33 176 -56 267 -56 139 0 328 52 351 97 10 21 12 21 30 8 18
-15 18 -16 -11 -40 -44 -37 -148 -76 -183 -69 -18 4 -42 -1 -63 -11 -28 -15
-51 -17 -154 -12 -130 6 -210 24 -288 63 -27 13 -52 23 -54 20 -5 -5 54 -42
90 -55 23 -9 26 -15 21 -36 -3 -14 -3 -37 1 -52 6 -25 8 -26 17 -9 6 10 8 34
5 53 -5 27 -3 34 8 29 7 -2 30 -8 50 -12 26 -5 33 -10 26 -17 -14 -14 -14 -74
-1 -82 6 -4 11 7 11 24 1 17 2 37 3 44 2 19 234 22 271 3 30 -16 32 -15 78 23
9 8 40 22 67 32 54 19 56 18 51 -33 -1 -10 3 -18 8 -18 13 0 14 35 2 58 -7 14
-2 22 29 38 l38 21 6 -50 c6 -45 4 -53 -19 -77 -28 -29 -123 -69 -215 -92 -30
-7 -107 -13 -170 -13 -165 0 -288 31 -369 92 l-33 26 5 70 c4 58 9 74 27 89
20 16 52 26 37 12z m1551 -61 c2 -28 -1 -43 -9 -43 -8 0 -8 -4 -1 -12 6 -7 19
-38 30 -70 15 -42 17 -59 8 -68 -8 -8 -7 -10 5 -5 24 9 42 -38 20 -53 -13 -10
-12 -11 5 -2 19 8 25 4 47 -29 23 -35 24 -40 11 -60 -8 -11 -22 -21 -31 -21
-9 0 -14 3 -10 6 3 3 -11 31 -30 62 -20 31 -47 85 -59 120 -15 45 -24 59 -28
46 -3 -11 -4 -7 -2 8 2 15 -1 25 -5 22 -14 -8 -11 20 4 35 10 10 9 12 -3 9
-11 -2 -16 8 -18 36 -5 54 3 68 35 64 25 -3 28 -7 31 -45z m182 38 c0 -5 3
-16 6 -25 5 -13 -1 -16 -25 -16 -26 0 -31 4 -31 25 0 20 5 25 25 25 14 0 25
-4 25 -9z m-1456 -17 c10 -4 16 -18 16 -36 l0 -31 -47 7 c-27 4 -54 7 -60 8
-14 1 -18 40 -6 51 8 9 76 9 97 1z m76 -34 c0 -36 -3 -40 -24 -40 -21 0 -24 6
-28 40 -3 38 -2 40 24 40 26 0 28 -3 28 -40z m818 16 l62 1 0 -62 c0 -72 12
-65 -135 -85 -44 -6 -88 -13 -97 -16 -16 -5 -18 2 -18 46 l0 51 30 -16 c16 -8
31 -15 35 -15 3 0 5 25 5 55 l0 55 28 -7 c15 -5 55 -7 90 -7z m305 -92 c29
-137 107 -270 206 -354 26 -21 60 -42 77 -46 16 -4 26 -3 22 1 -4 4 -1 14 7
22 8 8 15 22 14 31 0 12 -3 11 -9 -5 -5 -13 -12 -23 -15 -23 -9 0 -90 52 -96
63 -4 5 -11 7 -17 3 -21 -13 -21 12 -1 38 17 21 24 24 35 15 17 -14 18 -39 2
-39 -6 0 -8 -3 -5 -6 4 -4 13 -1 22 6 12 10 21 8 50 -9 20 -12 43 -21 51 -21
8 0 14 -10 14 -24 0 -37 -10 -56 -30 -56 -11 0 -22 -5 -26 -11 -10 -16 -176
-5 -235 16 -62 21 -96 60 -125 139 -41 113 -30 259 23 318 9 10 17 17 19 15 2
-1 9 -34 17 -73z m-1548 -58 c12 -9 12 -20 -2 -74 -15 -61 -17 -63 -42 -57
-14 3 -32 14 -39 23 -7 9 -20 16 -28 14 -21 -4 -17 10 21 74 19 32 35 63 35
68 0 6 8 2 16 -9 15 -19 15 -19 9 7 -4 16 -3 36 1 45 6 13 9 4 12 -31 2 -27
10 -54 17 -60z m595 70 c0 -10 -52 -36 -61 -31 -16 11 10 35 37 35 13 0 24 -2
24 -4z m850 -60 c0 -22 -6 -26 -47 -31 -27 -4 -144 -22 -260 -41 -117 -19
-215 -34 -218 -34 -3 0 -5 11 -5 24 0 26 -31 19 405 86 66 10 121 19 123 19 1
1 2 -10 2 -23z m-1409 -69 c-8 -8 -11 -5 -11 9 0 27 14 41 18 19 2 -9 -1 -22
-7 -28z m-164 15 c-43 -47 4 -112 81 -112 22 0 31 -6 35 -22 9 -32 1 -38 -50
-38 -74 0 -133 46 -133 104 0 29 45 86 67 86 14 0 14 -2 0 -18z m883 -16 c0
-34 -21 -63 -38 -52 -6 3 -15 -1 -22 -9 -21 -26 -31 -17 -28 26 2 34 5 40 21
35 11 -2 25 3 35 15 24 27 32 24 32 -15z m-622 0 c39 -15 52 -25 52 -40 0 -18
2 -18 10 -6 8 11 9 7 4 -14 -7 -28 -6 -29 25 -23 26 5 31 3 31 -12 0 -16 -4
-17 -45 -8 -31 7 -45 15 -45 27 0 13 -7 16 -29 12 -46 -6 -71 13 -71 54 0 20
4 34 8 32 4 -1 31 -12 60 -22z m522 -52 c0 -12 -7 -27 -15 -34 -11 -9 -15 -9
-15 -1 0 9 -5 9 -21 0 -12 -6 -57 -13 -100 -16 l-79 -6 0 33 c0 30 2 32 28 27
35 -7 176 20 181 34 5 16 21 -11 21 -37z m144 28 c7 -11 -38 -52 -87 -80 -77
-44 -150 -56 -342 -56 -165 -1 -185 1 -236 22 -31 12 -64 31 -74 42 -10 11
-23 20 -28 20 -21 0 47 -60 80 -71 27 -9 32 -15 28 -32 -4 -13 1 -31 10 -42
16 -19 16 -18 11 18 -5 40 -2 42 52 31 28 -6 30 -9 25 -40 -5 -28 -2 -34 12
-34 13 0 16 6 13 29 l-4 28 130 6 c168 7 298 36 367 82 l50 34 -7 -37 c-11
-63 -22 -80 -61 -105 -81 -51 -209 -77 -381 -78 -119 -1 -204 20 -275 68 -48
33 -56 49 -62 115 -5 66 9 88 37 53 39 -49 243 -92 388 -80 156 12 311 60 327
100 6 17 19 20 27 7z m-455 -18 c26 -4 31 -8 20 -15 -11 -7 -9 -9 9 -9 12 0
23 6 23 13 1 6 4 -4 8 -23 5 -26 2 -37 -9 -42 -25 -11 -30 -9 -30 12 0 20 -16
28 -22 11 -1 -5 -16 -11 -33 -13 -25 -2 -31 1 -33 20 -3 16 -10 22 -28 22 -17
0 -24 5 -24 20 0 21 4 21 119 4z m1711 -152 c-6 -2 -10 -14 -10 -27 0 -28 -19
-44 -21 -18 -1 15 -2 15 -6 2 -2 -10 -20 -19 -46 -23 -22 -4 -47 -11 -53 -17
-10 -8 -10 -3 -2 25 11 34 14 36 52 36 43 1 76 18 76 41 0 11 2 11 10 -1 6
-10 6 -16 0 -18z m-1340 -86 c-8 -26 -24 -43 -54 -61 -24 -14 -45 -25 -49 -25
-3 0 1 20 10 45 10 31 20 45 33 45 10 0 28 9 41 19 31 25 34 21 19 -23z m-520
-13 c8 -2 25 -22 37 -44 25 -46 15 -50 -46 -20 -36 19 -60 46 -74 84 -6 16 -4
16 31 1 20 -9 44 -18 52 -21z m420 -2 c0 -5 -7 -24 -15 -44 -15 -37 -25 -41
-112 -53 l-53 -7 0 46 0 45 64 0 c35 0 72 5 82 11 23 13 34 14 34 2z m-300
-21 c0 -5 21 -9 48 -9 46 2 46 2 12 9 l-35 7 37 2 c41 1 46 -6 40 -56 l-4 -36
-67 7 c-52 4 -69 10 -83 28 -29 38 -23 58 17 58 19 0 35 -4 35 -10z"/>
<path d="M1638 1743 c12 -2 30 -2 40 0 9 3 -1 5 -23 4 -22 0 -30 -2 -17 -4z"/>
<path d="M910 1706 c0 -2 14 -6 30 -8 17 -3 30 -1 30 4 0 4 -13 8 -30 8 -16 0
-30 -2 -30 -4z"/>
<path d="M1327 1637 c-19 -13 -18 -46 1 -69 8 -10 9 -24 2 -49 -6 -18 -10 -36
-10 -38 0 -6 182 8 189 15 3 3 -13 22 -37 42 -23 20 -42 45 -42 55 0 43 -66
72 -103 44z m75 -14 c10 -9 18 -23 18 -32 0 -8 17 -32 37 -53 22 -22 31 -38
23 -38 -23 1 -66 44 -74 74 -8 34 -49 55 -71 36 -18 -15 -21 0 -3 18 17 17 48
15 70 -5z"/>
<path d="M1360 1390 c8 -5 26 -9 40 -9 l25 1 -25 8 c-14 4 -32 8 -40 9 -13 1
-13 0 0 -9z"/>
<path d="M885 1494 c-9 -9 -14 -18 -12 -20 5 -6 57 20 57 29 0 13 -28 7 -45
-9z"/>
<path d="M1123 1663 c15 -2 37 -2 50 0 12 2 0 4 -28 4 -27 0 -38 -2 -22 -4z"/>
<path d="M1230 1150 c-54 -7 -54 -7 -10 -7 25 0 74 3 110 7 l65 7 -55 0 c-30
0 -80 -3 -110 -7z"/>
<path d="M1078 1133 c17 -2 47 -2 65 0 17 2 3 4 -33 4 -36 0 -50 -2 -32 -4z"/>
<path d="M963 1123 c15 -2 39 -2 55 0 15 2 2 4 -28 4 -30 0 -43 -2 -27 -4z"/>
<path d="M868 1113 c12 -2 32 -2 45 0 12 2 2 4 -23 4 -25 0 -35 -2 -22 -4z"/>
<path d="M558 1433 c16 -6 15 -38 -2 -52 -12 -10 -15 -7 -18 15 -2 15 -10 29
-18 32 -12 4 -13 2 -2 -9 6 -7 12 -23 12 -35 0 -34 17 -38 45 -10 14 15 30 26
35 26 5 0 11 4 14 9 3 4 -6 6 -19 3 -18 -3 -25 0 -25 12 0 9 -8 16 -17 15 -11
0 -13 -3 -5 -6z"/>
<path d="M439 1274 c-6 -16 -13 -45 -15 -64 -3 -26 1 -21 16 24 20 60 20 93
-1 40z"/>
<path d="M2034 1139 c-5 -9 -2 -10 11 -5 11 4 22 1 27 -6 7 -10 9 -9 5 2 -5
19 -33 25 -43 9z"/>
<path d="M2135 1072 c4 -8 11 -26 15 -40 7 -22 8 -23 9 -6 1 11 -6 29 -15 40
-8 10 -12 13 -9 6z"/>
<path d="M2171 1059 c5 -10 9 -27 9 -38 0 -12 4 -21 9 -21 5 0 8 17 8 38 -2
28 -6 38 -19 38 -12 0 -14 -4 -7 -17z"/>
<path d="M2097 1040 c9 -11 19 -17 21 -15 6 6 -18 35 -29 35 -5 0 -1 -9 8 -20z"/>
<path d="M1995 930 c-14 -16 -17 -25 -9 -37 17 -27 31 -26 37 4 8 43 -5 58
-28 33z"/>
<path d="M2400 811 c0 -16 30 -35 41 -24 6 6 1 13 -16 21 -14 6 -25 8 -25 3z"/>
<path d="M2468 760 c-20 -35 -48 -64 -98 -99 -71 -49 -83 -73 -22 -44 56 27
120 91 138 138 23 62 15 64 -18 5z"/>
<path d="M2350 761 c0 -23 -8 -50 -21 -67 l-21 -29 26 28 c19 20 26 39 26 68
0 21 -2 39 -5 39 -3 0 -5 -17 -5 -39z"/>
<path d="M1871 834 c6 -8 29 -19 51 -26 30 -9 39 -16 37 -32 -3 -45 1 -60 12
-49 18 18 2 83 -19 83 -10 0 -35 9 -55 19 -25 13 -34 15 -26 5z"/>
<path d="M2105 825 c-16 -8 -47 -14 -69 -15 l-39 0 6 -37 c7 -38 22 -61 33
-50 4 3 -1 18 -11 33 -20 31 -13 39 44 48 20 3 45 12 56 20 24 19 19 19 -20 1z"/>
<path d="M2196 518 c-11 -6 -40 -16 -65 -23 -25 -6 -45 -14 -43 -18 1 -4 2
-50 2 -103 0 -61 4 -93 10 -89 6 3 10 42 10 85 0 87 8 102 66 126 18 8 35 18
39 24 8 12 5 12 -19 -2z"/>
<path d="M1957 470 c15 -6 24 -21 28 -47 13 -76 24 -81 24 -10 l1 67 -37 -1
c-32 0 -35 -2 -16 -9z"/>
<path d="M1751 509 c-22 -64 -3 -214 36 -281 25 -42 105 -78 167 -77 l51 2
-61 7 c-115 13 -160 62 -185 201 -9 53 -10 84 -2 122 13 61 10 72 -6 26z"/>
<path d="M90 321 c6 -12 15 -21 20 -21 18 0 11 19 -11 30 -19 11 -20 10 -9 -9z"/>
</g>
</svg>
